:SAMPLES-PER-SECOND 30
:FULLY-SPECIFIED
:DEGREES
123
root  -17.4868 34.7958 -15.1655 -173.26 1.21368 179.356
RightUpLeg  -2.45832 -14.8005 -3.11547
RightLeg  0.98055 -2.44408 0.115817
RightFoot  6.42684 0.0386407 -0.10832
RightToes  -26.0623 -0.120729 -0.226106
Spine  -3.61931 0.599499 -0.970514
Spine1  -6.76223 1.47809 -1.12514
HEad  -66.7635 -4.73806 9.91549
LeftShoulder1  -1.94126e-019 -3.10601e-018 -2.51263e-017
LeftArm  16.4654 -16.4133 -80.0893
LeftForeArm  167.15 -55.567 -164.998
LeftHand  -1.44909 -3.654 18.733
RightShoulder  -4.96962e-017 0 -2.36833e-017
RightArm  19.7934 13.9638 81.6164
RightForeArm  -164.537 60.8644 164.411
RightHand  -0.483987 -3.9868 -39.2465
LeftUpLeg  -3.77407 0.133702 2.68814
LeftLeg  5.17847 15.1279 0.389965
LeftFoot  4.97332 -0.0542993 1.53731
LeftToes  -20.6112 1.7763e-006 6.54387e-008
124
root  -17.4756 34.7908 -15.1578 -173.353 1.1073 179.412
RightUpLeg  -2.33267 -15.1337 -3.08693
RightLeg  0.944046 -2.17883 0.104653
RightFoot  6.47678 0.0385935 -0.0886844
RightToes  -26.34 -0.120729 -0.227044
Spine  -3.60374 0.489949 -0.917855
Spine1  -6.66824 1.23478 -1.03842
HEad  -67.8366 -4.98776 10.3546
LeftShoulder1  -1.94126e-019 -3.10601e-018 -2.51263e-017
LeftArm  12.6945 -17.3902 -78.561
LeftForeArm  169.028 -53.6999 -166.086
LeftHand  -1.3664 -3.75014 17.5158
RightShoulder  -4.96962e-017 0 -2.36833e-017
RightArm  11.1289 12.5831 81.5623
RightForeArm  -160.64 57.8482 166.443
RightHand  -1.01804 -1.99195 -34.0398
LeftUpLeg  -3.87232 0.0531373 2.76667
LeftLeg  5.52122 15.081 0.477983
LeftFoot  4.82219 -0.0518603 1.4895
LeftToes  -20.7809 1.7763e-006 6.54387e-008
125
root  -17.4601 34.7886 -15.1679 -173.451 0.982346 179.506
RightUpLeg  -2.10549 -15.648 -3.02865
RightLeg  0.778809 -1.757 0.0894702
RightFoot  6.58612 0.0373565 -0.0509774
RightToes  -26.5235 -0.120729 -0.228031
Spine  -3.76225 0.341512 -0.857851
Spine1  -6.92538 0.936285 -0.935168
HEad  -68.011 -5.33633 10.2591
LeftShoulder1  -1.94126e-019 -3.10601e-018 -2.51263e-017
LeftArm  7.13 -17.9287 -75.8262
LeftForeArm  167.689 -52.1573 -166.702
LeftHand  -1.31455 -3.50085 17.3239
RightShoulder  -4.96962e-017 0 -2.36833e-017
RightArm  1.73763 10.7098 79.6972
RightForeArm  -164.142 55.3123 167.446
RightHand  -0.747526 -2.9642 -35.0054
LeftUpLeg  -3.96598 0.115193 2.90091
LeftLeg  5.90869 14.9402 0.573573
LeftFoot  4.65672 -0.0489205 1.43296
LeftToes  -20.7989 1.7763e-006 6.54387e-008
126
root  -17.4441 34.7877 -15.1864 -173.445 1.05762 179.637
RightUpLeg  -2.01948 -16.2434 -2.92591
RightLeg  0.640175 -1.03676 0.0553528
RightFoot  6.73998 0.033497 0.0242042
RightToes  -26.7928 -0.122471 -0.229069
Spine  -3.94122 0.23618 -0.78572
Spine1  -7.2498 0.725292 -0.787365
HEad  -67.3596 -6.66471 10.1956
LeftShoulder1  -1.94126e-019 -3.10601e-018 -2.51263e-017
LeftArm  2.90993 -19.3301 -73.9253
LeftForeArm  166.072 -51.8224 -166.732
LeftHand  -1.24723 -2.39337 18.7072
RightShoulder  -4.96962e-017 0 -2.36833e-017
RightArm  -6.34314 9.08502 77.5004
RightForeArm  -167.525 53.7101 167.934
RightHand  -0.0918647 -5.08952 -36.8301
LeftUpLeg  -4.1738 0.552692 3.06583
LeftLeg  6.4148 14.5849 0.687812
LeftFoot  4.40648 -0.0437098 1.34017
LeftToes  -20.9383 1.7763e-006 6.54387e-008
127
root  -17.4312 34.7887 -15.1963 -173.488 1.38776 179.783
RightUpLeg  -2.01111 -16.4306 -2.81457
RightLeg  0.650428 -0.483989 0.0258503
RightFoot  6.86938 0.0304339 0.0869325
RightToes  -27.0659 -0.123859 -0.231065
Spine  -4.07409 0.0296011 -0.739749
Spine1  -7.51096 0.299876 -0.652985
HEad  -66.3581 -8.44832 9.47472
LeftShoulder1  -1.94126e-019 -3.10601e-018 -2.51263e-017
LeftArm  3.11808 -22.3929 -74.1189
LeftForeArm  165.367 -53.4633 -165.915
LeftHand  -1.2213 -2.08691 19.0515
RightShoulder  -4.96962e-017 0 -2.36833e-017
RightArm  -7.77788 9.62896 77.0513
RightForeArm  -170.598 54.2676 167.46
RightHand  0.345638 -6.34965 -39.0831
LeftUpLeg  -4.33279 1.04986 3.21609
LeftLeg  6.99822 14.4632 0.828212
LeftFoot  4.09306 -0.0389239 1.25299
LeftToes  -20.8331 1.7763e-006 6.54387e-008
128
root  -17.4087 34.7954 -15.2037 -173.677 2.2357 179.98
RightUpLeg  -1.95715 -16.0495 -2.66088
RightLeg  0.67494 -0.0218175 0.0013412
RightFoot  7.03442 0.0276849 0.143033
RightToes  -27.2507 -0.124925 -0.232557
Spine  -4.20945 -0.254238 -0.671797
Spine1  -7.82165 -0.292622 -0.468802
HEad  -65.2005 -10.5456 8.70347
LeftShoulder1  -1.94126e-019 -3.10601e-018 -2.51263e-017
LeftArm  9.64038 -25.8694 -76.413
LeftForeArm  165.882 -56.9057 -164.153
LeftHand  -1.23171 -2.5639 18.099
RightShoulder  -4.96962e-017 0 -2.36833e-017
RightArm  -0.908951 11.7178 78.0249
RightForeArm  -168.932 56.0083 166.757
RightHand  0.110308 -5.70141 -37.1393
LeftUpLeg  -4.24772 1.83078 3.41047
LeftLeg  7.5568 14.5295 0.972505
LeftFoot  3.87806 -0.03674 1.20524
LeftToes  -21.3088 1.7763e-006 6.54387e-008
129
root  -17.369 34.8018 -15.2228 -173.921 3.83995 -179.784
RightUpLeg  -1.964 -15.1578 -2.47062
RightLeg  0.744144 0.693374 -0.0353988
RightFoot  7.19733 0.0223358 0.233073
RightToes  -27.4782 -0.125884 -0.233658
Spine  -4.24569 -0.502863 -0.570419
Spine1  -7.9706 -0.814679 -0.230195
HEad  -64.3227 -12.9117 8.20539
LeftShoulder1  -1.94126e-019 -3.10601e-018 -2.51263e-017
LeftArm  20.0177 -28.7588 -80.0301
LeftForeArm  163.756 -61.183 -161.212
LeftHand  -1.18752 -3.6112 15.5094
RightShoulder  -4.96962e-017 0 -2.36833e-017
RightArm  9.33143 14.7389 79.7791
RightForeArm  -165.923 58.3205 165.786
RightHand  -0.538582 -3.50736 -32.5976
LeftUpLeg  -3.93112 3.25347 3.65973
LeftLeg  8.09522 14.6416 1.11655
LeftFoot  3.52043 -0.0323422 1.12203
LeftToes  -21.2366 1.7763e-006 6.54387e-008
130
root  -17.3054 34.7992 -15.2308 -174.067 5.953 -179.432
RightUpLeg  -2.29488 -13.8656 -2.09667
RightLeg  1.11569 1.49739 -0.0668324
RightFoot  7.22389 0.0160976 0.331535
RightToes  -27.5536 -0.126954 -0.234692
Spine  -4.10805 -0.755986 -0.414013
Spine1  -7.76771 -1.35253 0.10032
HEad  -64.5315 -15.8363 8.11124
LeftShoulder1  -1.94126e-019 -3.10601e-018 -2.51263e-017
LeftArm  22.69 -29.1898 -82.8372
LeftForeArm  158.605 -62.5678 -159.657
LeftHand  -1.23885 -3.29074 16.7333
RightShoulder  -4.96962e-017 0 -2.36833e-017
RightArm  12.2747 15.5131 81.0366
RightForeArm  -161.443 58.9555 165.784
RightHand  -0.184832 -4.86173 -41.2482
LeftUpLeg  -3.67441 4.95222 4.04696
LeftLeg  8.80495 14.9656 1.32509
LeftFoot  3.03104 -0.0262128 1.01084
LeftToes  -21.2127 1.7763e-006 6.54387e-008
